<svg width="215" height="215" viewBox="0 0 215 215" fill="none" xmlns="http://www.w3.org/2000/svg">
<path d="M107.5 20.1562C59.3402 20.1562 20.1562 59.3402 20.1562 107.5C20.1562 155.66 59.3402 194.844 107.5 194.844C155.66 194.844 194.844 155.66 194.844 107.5C194.844 59.3402 155.66 20.1562 107.5 20.1562ZM107.5 33.5938C148.39 33.5938 181.406 66.6101 181.406 107.5C181.406 148.39 148.39 181.406 107.5 181.406C66.6101 181.406 33.5938 148.39 33.5938 107.5C33.5938 66.6101 66.6101 33.5938 107.5 33.5938ZM82.0947 72.4365L72.4365 82.0947L97.8418 107.5L72.4365 132.905L82.0947 142.563L107.5 117.158L132.905 142.563L142.563 132.905L117.158 107.5L142.563 82.0947L132.905 72.4365L107.5 97.8418L82.0947 72.4365Z" fill="#FFA3A3"/>
</svg>
