<svg width="212" height="215" viewBox="0 0 212 215" fill="none" xmlns="http://www.w3.org/2000/svg">
<path d="M106 20.1562C58.3052 20.1562 19.875 59.1302 19.875 107.5C19.875 155.87 58.3052 194.844 106 194.844C153.695 194.844 192.125 155.87 192.125 107.5C192.125 98.1043 190.883 88.7347 187.57 79.9951L176.805 90.7031C178.125 96.0834 178.875 101.464 178.875 107.5C178.875 148.495 146.423 181.406 106 181.406C65.5772 181.406 33.125 148.495 33.125 107.5C33.125 66.5051 65.5772 33.5938 106 33.5938C125.875 33.5938 143.731 41.6248 156.309 54.3799L165.625 44.9316C150.382 29.4733 129.188 20.1562 106 20.1562ZM180.738 48.9209L106 124.717L77.6367 95.9521L68.1133 105.61L101.238 139.204L106 143.823L110.762 139.204L190.262 58.5791L180.738 48.9209Z" fill="#B0FFA4"/>
</svg>
