<svg width="51" height="34" viewBox="0 0 51 34" fill="none" xmlns="http://www.w3.org/2000/svg">
<path d="M50.201 16.3896C50.1282 16.2288 48.3751 12.4054 44.4759 8.57206C39.2827 3.46631 32.7208 0.767456 25.5 0.767456C18.2791 0.767456 11.7172 3.46631 6.52404 8.57206C2.62481 12.4054 0.871723 16.2288 0.798937 16.3896C0.704859 16.5978 0.65625 16.823 0.65625 17.0508C0.65625 17.2786 0.704859 17.5039 0.798937 17.7121C0.871723 17.8731 2.62502 21.6955 6.52424 25.5282C11.7174 30.6328 18.2791 33.331 25.5 33.331C32.7208 33.331 39.2825 30.6328 44.4757 25.5282C48.3749 21.6955 50.1282 17.8731 50.201 17.7121C50.295 17.5039 50.3437 17.2786 50.3437 17.0508C50.3437 16.823 50.295 16.5978 50.201 16.3896ZM25.5 9.72422C26.974 9.72422 28.415 10.1539 29.6407 10.959C30.8663 11.7641 31.8216 12.9084 32.3857 14.2472C32.9498 15.586 33.0974 17.0592 32.8099 18.4804C32.5223 19.9017 31.8124 21.2072 30.7701 22.2319C29.7278 23.2565 28.3997 23.9543 26.954 24.237C25.5082 24.5198 24.0096 24.3747 22.6478 23.8201C21.2859 23.2656 20.1219 22.3265 19.3029 21.1216C18.4839 19.9167 18.0468 18.5001 18.0468 17.051C18.049 15.1085 18.835 13.2462 20.2323 11.8726C21.6295 10.499 23.5239 9.72641 25.5 9.72422Z" fill="black"/>
</svg>
