<svg width="48" height="48" viewBox="0 0 48 48" fill="none" xmlns="http://www.w3.org/2000/svg">
<path d="M15.0643 16.4334C14.925 16.2941 14.8145 16.1288 14.7391 15.9468C14.6638 15.7648 14.625 15.5697 14.625 15.3728C14.625 15.1758 14.6638 14.9807 14.7392 14.7988C14.8146 14.6168 14.9252 14.4514 15.0645 14.3122L22.9395 6.43918C23.2208 6.15797 23.6022 6 24 6C24.3978 6 24.7792 6.15797 25.0606 6.43918L32.9356 14.3122C33.0748 14.4514 33.1853 14.6168 33.2607 14.7988C33.3361 14.9807 33.375 15.1758 33.375 15.3728C33.375 15.5697 33.3362 15.7648 33.2608 15.9468C33.1855 16.1288 33.075 16.2941 32.9357 16.4334C32.7965 16.5727 32.6311 16.6832 32.4491 16.7586C32.2672 16.834 32.0721 16.8728 31.8751 16.8729C31.6782 16.8729 31.4831 16.8341 31.3011 16.7587C31.1191 16.6834 30.9538 16.5729 30.8145 16.4336L25.5 11.1206V28.4999C25.5 28.8977 25.342 29.2793 25.0607 29.5606C24.7794 29.8419 24.3978 29.9999 24 29.9999C23.6022 29.9999 23.2206 29.8419 22.9393 29.5606C22.658 29.2793 22.5 28.8977 22.5 28.4999V11.1206L17.1855 16.4336C17.0463 16.5729 16.8809 16.6834 16.6989 16.7588C16.5169 16.8341 16.3219 16.8729 16.1249 16.8729C15.9279 16.8729 15.7328 16.8341 15.5509 16.7587C15.3689 16.6833 15.2035 16.5728 15.0643 16.4334ZM40.5 26.9999C40.1022 26.9999 39.7207 27.158 39.4394 27.4393C39.1581 27.7206 39 28.1021 39 28.4999V38.9999H9V28.4999C9 28.1021 8.84196 27.7206 8.56066 27.4392C8.27936 27.1579 7.89782 26.9999 7.5 26.9999C7.10218 26.9999 6.72064 27.1579 6.43934 27.4392C6.15804 27.7206 6 28.1021 6 28.4999V38.9999C6.00091 39.7953 6.31727 40.5578 6.87968 41.1202C7.4421 41.6826 8.20463 41.999 9 41.9999H39C39.7954 41.999 40.5579 41.6826 41.1203 41.1202C41.6827 40.5578 41.9991 39.7953 42 38.9999V28.4999C42 28.1021 41.8419 27.7206 41.5606 27.4393C41.2793 27.158 40.8978 26.9999 40.5 26.9999Z" fill="black"/>
</svg>
